<svg xmlns="http://www.w3.org/2000/svg" viewBox="0 0 1587 1123" width="1587" height="1123">
  <defs>
    <linearGradient id="bgGrad" x1="0" y1="0" x2="1" y2="1">
      <stop offset="0%" stop-color="#070c10"/>
      <stop offset="100%" stop-color="#0a1520"/>
    </linearGradient>
    <linearGradient id="blueGrad" x1="0" y1="0" x2="0" y2="1">
      <stop offset="0%" stop-color="#64b4ff" stop-opacity="0.15"/>
      <stop offset="100%" stop-color="#64b4ff" stop-opacity="0.02"/>
    </linearGradient>
    <linearGradient id="greenGrad" x1="0" y1="0" x2="0" y2="1">
      <stop offset="0%" stop-color="#00ff88" stop-opacity="0.12"/>
      <stop offset="100%" stop-color="#00ff88" stop-opacity="0.02"/>
    </linearGradient>
    <linearGradient id="orangeGrad" x1="0" y1="0" x2="0" y2="1">
      <stop offset="0%" stop-color="#ff9944" stop-opacity="0.12"/>
      <stop offset="100%" stop-color="#ff9944" stop-opacity="0.02"/>
    </linearGradient>
    <filter id="glow">
      <feGaussianBlur stdDeviation="4" result="blur"/>
      <feComposite in="SourceGraphic" in2="blur" operator="over"/>
    </filter>
  </defs>

  <!-- Background -->
  <rect width="1587" height="1123" fill="url(#bgGrad)"/>

  <!-- Subtle grid -->
  <g stroke="rgba(100,180,255,0.04)" stroke-width="1">
    <line x1="0" y1="60" x2="1587" y2="60"/>
    <line x1="0" y1="120" x2="1587" y2="120"/>
    <line x1="0" y1="180" x2="1587" y2="180"/>
    <line x1="0" y1="240" x2="1587" y2="240"/>
    <line x1="0" y1="300" x2="1587" y2="300"/>
    <line x1="0" y1="360" x2="1587" y2="360"/>
    <line x1="0" y1="420" x2="1587" y2="420"/>
    <line x1="0" y1="480" x2="1587" y2="480"/>
    <line x1="0" y1="540" x2="1587" y2="540"/>
    <line x1="0" y1="600" x2="1587" y2="600"/>
    <line x1="0" y1="660" x2="1587" y2="660"/>
    <line x1="0" y1="720" x2="1587" y2="720"/>
    <line x1="0" y1="780" x2="1587" y2="780"/>
    <line x1="0" y1="840" x2="1587" y2="840"/>
    <line x1="0" y1="900" x2="1587" y2="900"/>
    <line x1="0" y1="960" x2="1587" y2="960"/>
    <line x1="0" y1="1020" x2="1587" y2="1020"/>
    <line x1="60" y1="0" x2="60" y2="1123"/>
    <line x1="120" y1="0" x2="120" y2="1123"/>
    <line x1="180" y1="0" x2="180" y2="1123"/>
    <line x1="240" y1="0" x2="240" y2="1123"/>
    <line x1="300" y1="0" x2="300" y2="1123"/>
    <line x1="360" y1="0" x2="360" y2="1123"/>
    <line x1="420" y1="0" x2="420" y2="1123"/>
    <line x1="480" y1="0" x2="480" y2="1123"/>
    <line x1="540" y1="0" x2="540" y2="1123"/>
    <line x1="600" y1="0" x2="600" y2="1123"/>
    <line x1="660" y1="0" x2="660" y2="1123"/>
    <line x1="720" y1="0" x2="720" y2="1123"/>
    <line x1="780" y1="0" x2="780" y2="1123"/>
    <line x1="840" y1="0" x2="840" y2="1123"/>
    <line x1="900" y1="0" x2="900" y2="1123"/>
    <line x1="960" y1="0" x2="960" y2="1123"/>
    <line x1="1020" y1="0" x2="1020" y2="1123"/>
    <line x1="1080" y1="0" x2="1080" y2="1123"/>
    <line x1="1140" y1="0" x2="1140" y2="1123"/>
    <line x1="1200" y1="0" x2="1200" y2="1123"/>
    <line x1="1260" y1="0" x2="1260" y2="1123"/>
    <line x1="1320" y1="0" x2="1320" y2="1123"/>
    <line x1="1380" y1="0" x2="1380" y2="1123"/>
    <line x1="1440" y1="0" x2="1440" y2="1123"/>
    <line x1="1500" y1="0" x2="1500" y2="1123"/>
    <line x1="1560" y1="0" x2="1560" y2="1123"/>
  </g>

  <!-- Header -->
  <text x="60" y="55" font-family="Arial Black,sans-serif" font-size="11" letter-spacing="3" fill="#64b4ff" font-weight="700">CH 17 · AGENT EVALS METHODOLOGY</text>
  <text x="60" y="100" font-family="Arial Black,sans-serif" font-size="48" font-weight="900" fill="white">如何知道 Agent 变好了还是变坏了</text>
  <text x="60" y="128" font-family="Arial,sans-serif" font-size="16" fill="rgba(255,255,255,0.4)">LLM-as-judge  ·  Golden Dataset  ·  Regression Suite  ·  CI/CD 质量门控</text>

  <line x1="60" y1="148" x2="1527" y2="148" stroke="rgba(100,180,255,0.15)" stroke-width="1"/>

  <!-- ========== LEFT: THREE METHODS ========== -->

  <!-- Section label -->
  <text x="60" y="182" font-family="Arial,sans-serif" font-size="11" letter-spacing="2.5" fill="rgba(100,180,255,0.6)" font-weight="700">三种 EVAL 方法</text>

  <!-- Method 1: LLM-as-judge -->
  <rect x="60" y="196" width="430" height="210" rx="12" fill="url(#blueGrad)" stroke="rgba(100,180,255,0.2)" stroke-width="1"/>
  <text x="88" y="228" font-family="Arial,sans-serif" font-size="11" letter-spacing="2" fill="#64b4ff">LLM-AS-JUDGE</text>
  <text x="88" y="258" font-family="Arial Black,sans-serif" font-size="24" font-weight="900" fill="white">让 AI 评判 AI</text>
  <text x="88" y="285" font-family="Arial,sans-serif" font-size="14" fill="rgba(255,255,255,0.55)">✓ 能评主观质量（开放式输出）</text>
  <text x="88" y="308" font-family="Arial,sans-serif" font-size="14" fill="rgba(255,255,255,0.55)">✓ 比人工快 100x，可扩展</text>
  <text x="88" y="331" font-family="Arial,sans-serif" font-size="14" fill="rgba(255,120,120,0.7)">✗ judge 本身有偏见</text>
  <text x="88" y="354" font-family="Arial,sans-serif" font-size="14" fill="rgba(255,120,120,0.7)">✗ 每次有 API 成本（用 Haiku）</text>
  <rect x="88" y="370" width="200" height="24" rx="4" fill="rgba(100,180,255,0.1)" stroke="rgba(100,180,255,0.2)" stroke-width="1"/>
  <text x="100" y="386" font-family="Arial,sans-serif" font-size="12" fill="rgba(100,180,255,0.8)">适用：开放式QA / 内容生成</text>

  <!-- Method 2: Golden Dataset -->
  <rect x="60" y="424" width="430" height="210" rx="12" fill="url(#greenGrad)" stroke="rgba(0,255,136,0.2)" stroke-width="1"/>
  <text x="88" y="456" font-family="Arial,sans-serif" font-size="11" letter-spacing="2" fill="#00ff88">GOLDEN DATASET</text>
  <text x="88" y="486" font-family="Arial Black,sans-serif" font-size="24" font-weight="900" fill="white">黄金数据集</text>
  <text x="88" y="513" font-family="Arial,sans-serif" font-size="14" fill="rgba(255,255,255,0.55)">✓ 完全可重复，零 API 成本</text>
  <text x="88" y="536" font-family="Arial,sans-serif" font-size="14" fill="rgba(255,255,255,0.55)">✓ 精确捕捉回归退化</text>
  <text x="88" y="559" font-family="Arial,sans-serif" font-size="14" fill="rgba(255,120,120,0.7)">✗ 构建成本高（100条需数天）</text>
  <text x="88" y="582" font-family="Arial,sans-serif" font-size="14" fill="rgba(255,120,120,0.7)">✗ 格式变化时测试易失效</text>
  <rect x="88" y="598" width="200" height="24" rx="4" fill="rgba(0,255,136,0.08)" stroke="rgba(0,255,136,0.2)" stroke-width="1"/>
  <text x="100" y="614" font-family="Arial,sans-serif" font-size="12" fill="rgba(0,255,136,0.8)">适用：工具调用 / Safety规则</text>

  <!-- Method 3: Regression Suite -->
  <rect x="60" y="652" width="430" height="210" rx="12" fill="url(#orangeGrad)" stroke="rgba(255,153,68,0.2)" stroke-width="1"/>
  <text x="88" y="684" font-family="Arial,sans-serif" font-size="11" letter-spacing="2" fill="#ff9944">REGRESSION SUITE</text>
  <text x="88" y="714" font-family="Arial Black,sans-serif" font-size="24" font-weight="900" fill="white">版本对比回归</text>
  <text x="88" y="741" font-family="Arial,sans-serif" font-size="14" fill="rgba(255,255,255,0.55)">✓ 无需期望值，检测相对退化</text>
  <text x="88" y="764" font-family="Arial,sans-serif" font-size="14" fill="rgba(255,255,255,0.55)">✓ 模型升级的最佳护航工具</text>
  <text x="88" y="787" font-family="Arial,sans-serif" font-size="14" fill="rgba(255,120,120,0.7)">✗ 需要维护 baseline 版本</text>
  <text x="88" y="810" font-family="Arial,sans-serif" font-size="14" fill="rgba(255,120,120,0.7)">✗ 退化阈值设定需要经验</text>
  <rect x="88" y="826" width="220" height="24" rx="4" fill="rgba(255,153,68,0.08)" stroke="rgba(255,153,68,0.2)" stroke-width="1"/>
  <text x="100" y="842" font-family="Arial,sans-serif" font-size="12" fill="rgba(255,153,68,0.8)">适用：模型升级 / 重构回归</text>

  <!-- ========== CENTER: RADAR + CI FLOW ========== -->

  <!-- Center vertical divider -->
  <line x1="528" y1="160" x2="528" y2="980" stroke="rgba(100,180,255,0.08)" stroke-width="1"/>

  <!-- Radar diagram label -->
  <text x="560" y="182" font-family="Arial,sans-serif" font-size="11" letter-spacing="2.5" fill="rgba(170,136,255,0.6)" font-weight="700">三维度评分</text>

  <!-- Radar hexagon -->
  <g transform="translate(780, 470)">
    <!-- Axes -->
    <line x1="0" y1="-200" x2="0" y2="200" stroke="rgba(255,255,255,0.07)" stroke-width="1"/>
    <line x1="-173" y1="100" x2="173" y2="-100" stroke="rgba(255,255,255,0.07)" stroke-width="1"/>
    <line x1="-173" y1="-100" x2="173" y2="100" stroke="rgba(255,255,255,0.07)" stroke-width="1"/>

    <!-- Grid circles -->
    <polygon points="0,-100 87,-50 87,50 0,100 -87,50 -87,-50" fill="none" stroke="rgba(255,255,255,0.06)" stroke-width="1"/>
    <polygon points="0,-160 139,-80 139,80 0,160 -139,80 -139,-80" fill="none" stroke="rgba(255,255,255,0.06)" stroke-width="1"/>
    <polygon points="0,-200 173,-100 173,100 0,200 -173,100 -173,-100" fill="none" stroke="rgba(255,255,255,0.08)" stroke-width="1"/>

    <!-- v1.0 data (q=0.52, lat=0.90, cost=0.95) -->
    <polygon points="0,-104 156,-88 -190,95" fill="rgba(255,255,255,0.03)" stroke="rgba(255,255,255,0.15)" stroke-width="1.5" stroke-dasharray="4,3"/>

    <!-- v1.7 data (q=0.82, lat=0.73, cost=0.77) -->
    <polygon points="0,-164 134,-77 -154,77" fill="rgba(100,180,255,0.08)" stroke="#64b4ff" stroke-width="2.5"/>

    <!-- Axis labels -->
    <text x="0" y="-215" text-anchor="middle" font-family="Arial,sans-serif" font-size="16" font-weight="700" fill="#64b4ff">Quality</text>
    <text x="195" y="115" text-anchor="start" font-family="Arial,sans-serif" font-size="16" font-weight="700" fill="#ff9944">Latency</text>
    <text x="-195" y="115" text-anchor="end" font-family="Arial,sans-serif" font-size="16" font-weight="700" fill="#00ff88">Cost</text>

    <!-- Version labels -->
    <text x="60" y="-145" font-family="Arial,sans-serif" font-size="13" fill="#64b4ff">v1.7</text>
    <text x="60" y="-105" font-family="Arial,sans-serif" font-size="11" fill="rgba(255,255,255,0.3)">v1.0</text>
  </g>

  <!-- Weights label -->
  <text x="560" y="720" font-family="Arial,sans-serif" font-size="13" fill="rgba(255,255,255,0.4)">加权：Quality 50%  +  Latency 25%  +  Cost 25%</text>

  <!-- CI Flow label -->
  <text x="560" y="760" font-family="Arial,sans-serif" font-size="11" letter-spacing="2.5" fill="rgba(100,180,255,0.6)" font-weight="700">CI 集成流程</text>

  <!-- CI flow boxes -->
  <rect x="560" y="776" width="140" height="52" rx="8" fill="rgba(100,180,255,0.08)" stroke="rgba(100,180,255,0.2)" stroke-width="1"/>
  <text x="630" y="797" text-anchor="middle" font-family="Arial,sans-serif" font-size="11" fill="rgba(100,180,255,0.8)" font-weight="700">PR 提交</text>
  <text x="630" y="815" text-anchor="middle" font-family="Arial,sans-serif" font-size="11" fill="rgba(255,255,255,0.45)">代码变更</text>

  <text x="716" y="806" font-family="Arial,sans-serif" font-size="18" fill="rgba(255,255,255,0.2)">→</text>

  <rect x="740" y="776" width="140" height="52" rx="8" fill="rgba(100,180,255,0.08)" stroke="rgba(100,180,255,0.2)" stroke-width="1"/>
  <text x="810" y="797" text-anchor="middle" font-family="Arial,sans-serif" font-size="11" fill="rgba(100,180,255,0.8)" font-weight="700">CI 触发</text>
  <text x="810" y="815" text-anchor="middle" font-family="Arial,sans-serif" font-size="11" fill="rgba(255,255,255,0.45)">20条采样 ~30s</text>

  <text x="896" y="806" font-family="Arial,sans-serif" font-size="18" fill="rgba(255,255,255,0.2)">→</text>

  <rect x="920" y="776" width="140" height="52" rx="8" fill="rgba(100,180,255,0.08)" stroke="rgba(100,180,255,0.2)" stroke-width="1"/>
  <text x="990" y="797" text-anchor="middle" font-family="Arial,sans-serif" font-size="11" fill="rgba(100,180,255,0.8)" font-weight="700">三维度报告</text>
  <text x="990" y="815" text-anchor="middle" font-family="Arial,sans-serif" font-size="11" fill="rgba(255,255,255,0.45)">composite 评分</text>

  <text x="1076" y="806" font-family="Arial,sans-serif" font-size="18" fill="rgba(255,255,255,0.2)">→</text>

  <!-- Pass/Fail fork -->
  <rect x="1100" y="760" width="130" height="44" rx="8" fill="rgba(0,255,136,0.08)" stroke="rgba(0,255,136,0.3)" stroke-width="1"/>
  <text x="1165" y="777" text-anchor="middle" font-family="Arial,sans-serif" font-size="13" fill="#00ff88" font-weight="700">≥ 0.75</text>
  <text x="1165" y="795" text-anchor="middle" font-family="Arial,sans-serif" font-size="11" fill="rgba(0,255,136,0.7)">PASS · 可合并</text>

  <rect x="1100" y="820" width="130" height="44" rx="8" fill="rgba(255,68,68,0.08)" stroke="rgba(255,68,68,0.3)" stroke-width="1"/>
  <text x="1165" y="837" text-anchor="middle" font-family="Arial,sans-serif" font-size="13" fill="#ff4466" font-weight="700">&lt; 0.75</text>
  <text x="1165" y="855" text-anchor="middle" font-family="Arial,sans-serif" font-size="11" fill="rgba(255,68,68,0.7)">FAIL · 阻断合并</text>

  <!-- Fork line from arrow -->
  <line x1="1095" y1="802" x2="1100" y2="782" stroke="rgba(255,255,255,0.15)" stroke-width="1"/>
  <line x1="1095" y1="802" x2="1100" y2="842" stroke="rgba(255,255,255,0.15)" stroke-width="1"/>
  <line x1="1060" y1="802" x2="1095" y2="802" stroke="rgba(255,255,255,0.15)" stroke-width="1"/>

  <!-- ========== RIGHT: KEY PRINCIPLES ========== -->

  <line x1="1262" y1="160" x2="1262" y2="980" stroke="rgba(100,180,255,0.08)" stroke-width="1"/>

  <text x="1290" y="182" font-family="Arial,sans-serif" font-size="11" letter-spacing="2.5" fill="rgba(255,200,50,0.6)" font-weight="700">核心洞察</text>

  <!-- Insight cards -->
  <rect x="1290" y="196" width="240" height="90" rx="10" fill="rgba(255,200,50,0.05)" stroke="rgba(255,200,50,0.15)" stroke-width="1"/>
  <text x="1310" y="222" font-family="Arial,sans-serif" font-size="11" letter-spacing="1.5" fill="rgba(255,200,50,0.7)">ANTHROPIC 2026-01-09</text>
  <text x="1310" y="246" font-family="Arial,sans-serif" font-size="13" fill="rgba(255,255,255,0.65)" font-style="italic">"Evals 是开发进程</text>
  <text x="1310" y="266" font-family="Arial,sans-serif" font-size="13" fill="rgba(255,255,255,0.65)" font-style="italic"> 是否正确的仪器"</text>

  <rect x="1290" y="306" width="240" height="90" rx="10" fill="rgba(100,180,255,0.04)" stroke="rgba(100,180,255,0.12)" stroke-width="1"/>
  <text x="1310" y="330" font-family="Arial,sans-serif" font-size="11" letter-spacing="1.5" fill="rgba(100,180,255,0.6)">EVALS 穿插原则</text>
  <text x="1310" y="354" font-family="Arial,sans-serif" font-size="13" fill="rgba(255,255,255,0.55)">每章末尾有小 eval</text>
  <text x="1310" y="374" font-family="Arial,sans-serif" font-size="13" fill="rgba(255,255,255,0.55)">不能等到最后才做</text>

  <rect x="1290" y="416" width="240" height="90" rx="10" fill="rgba(0,255,136,0.04)" stroke="rgba(0,255,136,0.12)" stroke-width="1"/>
  <text x="1310" y="440" font-family="Arial,sans-serif" font-size="11" letter-spacing="1.5" fill="rgba(0,255,136,0.6)">成本控制铁律</text>
  <text x="1310" y="464" font-family="Arial,sans-serif" font-size="13" fill="rgba(255,255,255,0.55)">judge 用 Haiku</text>
  <text x="1310" y="484" font-family="Arial,sans-serif" font-size="13" fill="rgba(255,255,255,0.55)">边界区才升 Sonnet</text>

  <rect x="1290" y="526" width="240" height="110" rx="10" fill="rgba(255,153,68,0.04)" stroke="rgba(255,153,68,0.12)" stroke-width="1"/>
  <text x="1310" y="550" font-family="Arial,sans-serif" font-size="11" letter-spacing="1.5" fill="rgba(255,153,68,0.6)">TTS 反向验证案例</text>
  <text x="1310" y="574" font-family="Arial,sans-serif" font-size="13" fill="rgba(255,255,255,0.55)">TTS → ASR → 相似度</text>
  <text x="1310" y="594" font-family="Arial,sans-serif" font-size="13" fill="rgba(255,255,255,0.55)">&lt; 0.4 自动重试</text>
  <text x="1310" y="614" font-family="Arial,sans-serif" font-size="12" fill="rgba(255,153,68,0.6)">8-bit 比 4-bit 快 2.3x</text>

  <rect x="1290" y="656" width="240" height="90" rx="10" fill="rgba(170,136,255,0.04)" stroke="rgba(170,136,255,0.12)" stroke-width="1"/>
  <text x="1310" y="680" font-family="Arial,sans-serif" font-size="11" letter-spacing="1.5" fill="rgba(170,136,255,0.6)">VERIFICATION_AGENT</text>
  <text x="1310" y="704" font-family="Arial,sans-serif" font-size="13" fill="rgba(255,255,255,0.55)">CC 内置实时 eval</text>
  <text x="1310" y="724" font-family="Arial,sans-serif" font-size="13" fill="rgba(255,255,255,0.55)">TodoWriteTool.ts:107</text>

  <!-- ========== BOTTOM FOOTER ========== -->
  <line x1="60" y1="980" x2="1527" y2="980" stroke="rgba(100,180,255,0.1)" stroke-width="1"/>

  <!-- v1.7 version bar -->
  <rect x="60" y="1000" width="740" height="80" rx="10" fill="rgba(100,180,255,0.04)" stroke="rgba(100,180,255,0.1)" stroke-width="1"/>
  <text x="80" y="1025" font-family="Arial,sans-serif" font-size="11" letter-spacing="2" fill="rgba(100,180,255,0.6)">LENA V1.7 COMPOSITE SCORES</text>
  <text x="80" y="1055" font-family="Arial,sans-serif" font-size="13" fill="rgba(255,255,255,0.45)">Quality 0.82  ·  Latency 0.73  ·  Cost 0.77  →  </text>
  <text x="510" y="1055" font-family="Arial Black,sans-serif" font-size="16" font-weight="900" fill="#64b4ff">Composite 0.78  [GOOD]</text>

  <!-- Quote footer -->
  <rect x="840" y="1000" width="700" height="80" rx="10" fill="rgba(255,200,50,0.03)" stroke="rgba(255,200,50,0.08)" stroke-width="1"/>
  <text x="860" y="1025" font-family="Arial,sans-serif" font-size="11" letter-spacing="2" fill="rgba(255,200,50,0.5)">ANTHROPIC DEMYSTIFYING EVALS · 2026-01-09</text>
  <text x="860" y="1050" font-family="Arial,sans-serif" font-size="13" fill="rgba(255,255,255,0.45)" font-style="italic">"跑完没报错 ≠ 质量合格"  ·  anthropic.com/engineering</text>
  <text x="860" y="1070" font-family="Arial,sans-serif" font-size="11" fill="rgba(255,255,255,0.25)">© 从零构建你的 AI Agent · Ch 17</text>
</svg>
