<?xml version="1.0" encoding="UTF-8"?>
<svg width="900" height="560" viewBox="0 0 900 560" xmlns="http://www.w3.org/2000/svg" font-family="-apple-system,'PingFang SC',sans-serif">
  <defs>
    <linearGradient id="bg2" x1="0" y1="0" x2="0" y2="1">
      <stop offset="0%" stop-color="#08090f"/>
      <stop offset="100%" stop-color="#0c0a16"/>
    </linearGradient>
    <marker id="arr" markerWidth="7" markerHeight="7" refX="5" refY="3" orient="auto">
      <path d="M0,0 L0,6 L7,3 z" fill="#9966ff" opacity="0.7"/>
    </marker>
  </defs>

  <rect width="900" height="560" fill="url(#bg2)" rx="12"/>
  <text x="450" y="38" text-anchor="middle" fill="#9966ff" font-size="10" letter-spacing="3">LENA-SPECKIT ARCHITECTURE · v1.9</text>
  <text x="450" y="64" text-anchor="middle" fill="white" font-size="22" font-weight="900">通用 Runtime → Fork → 薄层配置 → 专用 Agent</text>
  <line x1="60" y1="76" x2="840" y2="76" stroke="#9966ff" stroke-width="0.5" opacity="0.3"/>

  <!-- Step 1: Universal Runtime -->
  <rect x="60" y="100" width="160" height="340" rx="8" fill="rgba(153,102,255,0.05)" stroke="rgba(153,102,255,0.3)" stroke-width="1.5"/>
  <text x="140" y="124" text-anchor="middle" fill="#9966ff" font-size="9" letter-spacing="2">RUNTIME</text>
  <text x="140" y="148" text-anchor="middle" fill="white" font-size="16" font-weight="700">通用 Lena</text>
  <line x1="74" y1="158" x2="206" y2="158" stroke="rgba(153,102,255,0.15)" stroke-width="1"/>
  <g fill="rgba(153,102,255,0.07)" stroke="rgba(153,102,255,0.2)" stroke-width="1">
    <rect x="74" y="168" width="132" height="28" rx="3"/>
    <rect x="74" y="202" width="132" height="28" rx="3"/>
    <rect x="74" y="236" width="132" height="28" rx="3"/>
    <rect x="74" y="270" width="132" height="28" rx="3"/>
    <rect x="74" y="304" width="132" height="28" rx="3"/>
    <rect x="74" y="338" width="132" height="28" rx="3"/>
    <rect x="74" y="372" width="132" height="28" rx="3"/>
    <rect x="74" y="406" width="132" height="28" rx="3"/>
  </g>
  <text x="140" y="187" text-anchor="middle" fill="rgba(255,255,255,0.5)" font-size="11">LLM Provider</text>
  <text x="140" y="221" text-anchor="middle" fill="rgba(255,255,255,0.5)" font-size="11">Tool Registry ×30</text>
  <text x="140" y="255" text-anchor="middle" fill="rgba(255,255,255,0.5)" font-size="11">Memory (3 层)</text>
  <text x="140" y="289" text-anchor="middle" fill="rgba(255,255,255,0.5)" font-size="11">AgentLoop</text>
  <text x="140" y="323" text-anchor="middle" fill="rgba(255,255,255,0.5)" font-size="11">Skills</text>
  <text x="140" y="357" text-anchor="middle" fill="rgba(255,255,255,0.5)" font-size="11">Channel</text>
  <text x="140" y="391" text-anchor="middle" fill="rgba(255,255,255,0.5)" font-size="11">Heartbeat</text>
  <text x="140" y="425" text-anchor="middle" fill="rgba(255,255,255,0.5)" font-size="11">MCP</text>

  <!-- Arrow to SpecKit -->
  <line x1="222" y1="270" x2="268" y2="270" stroke="#9966ff" stroke-width="1.5" marker-end="url(#arr)" stroke-dasharray="5,3" opacity="0.6"/>

  <!-- Step 2: SpecKit -->
  <rect x="270" y="140" width="160" height="260" rx="8" fill="rgba(153,102,255,0.08)" stroke="rgba(153,102,255,0.4)" stroke-width="1.5"/>
  <text x="350" y="164" text-anchor="middle" fill="#cc88ff" font-size="9" letter-spacing="2">LENA-SPECKIT</text>
  <text x="350" y="186" text-anchor="middle" fill="white" font-size="15" font-weight="700">薄层脚手架</text>
  <line x1="284" y1="196" x2="416" y2="196" stroke="rgba(153,102,255,0.2)" stroke-width="1"/>
  <text x="350" y="222" text-anchor="middle" fill="rgba(153,102,255,0.7)" font-size="11" font-family="monospace">① prompt 特化</text>
  <text x="350" y="248" text-anchor="middle" fill="rgba(153,102,255,0.7)" font-size="11" font-family="monospace">② 工具集裁剪</text>
  <text x="350" y="274" text-anchor="middle" fill="rgba(153,102,255,0.7)" font-size="11" font-family="monospace">③ skills 注入</text>
  <line x1="284" y1="290" x2="416" y2="290" stroke="rgba(153,102,255,0.1)" stroke-width="1"/>
  <text x="350" y="316" text-anchor="middle" fill="rgba(255,255,255,0.45)" font-size="11" font-family="monospace">lena-spec create</text>
  <text x="350" y="336" text-anchor="middle" fill="rgba(255,255,255,0.45)" font-size="11" font-family="monospace">lena-spec fork</text>
  <text x="350" y="356" text-anchor="middle" fill="rgba(255,255,255,0.45)" font-size="11" font-family="monospace">lena-spec deploy</text>
  <text x="350" y="386" text-anchor="middle" fill="rgba(153,102,255,0.5)" font-size="9">薄层 · 不封装 LLM 调用</text>

  <!-- Arrow to agents -->
  <line x1="432" y1="210" x2="478" y2="180" stroke="#00cc66" stroke-width="1.5" marker-end="url(#arr)" stroke-dasharray="5,3" opacity="0.6"/>
  <line x1="432" y1="270" x2="478" y2="310" stroke="#3399ff" stroke-width="1.5" marker-end="url(#arr)" stroke-dasharray="5,3" opacity="0.6"/>
  <line x1="432" y1="330" x2="478" y2="400" stroke="#ff9900" stroke-width="1.5" marker-end="url(#arr)" stroke-dasharray="5,3" opacity="0.6"/>

  <!-- Step 3: Agents -->
  <rect x="480" y="120" width="200" height="100" rx="8" fill="rgba(0,200,100,0.05)" stroke="rgba(0,200,100,0.3)" stroke-width="1.5"/>
  <text x="580" y="148" text-anchor="middle" fill="#00cc66" font-size="18" font-weight="800">TradingBot</text>
  <text x="580" y="170" text-anchor="middle" fill="rgba(0,200,100,0.5)" font-size="10" font-family="monospace">7 tools · trading-sop.md</text>
  <text x="580" y="190" text-anchor="middle" fill="rgba(255,255,255,0.3)" font-size="10">案例 19.1: hermesbot</text>
  <text x="580" y="208" text-anchor="middle" fill="rgba(0,200,100,0.4)" font-size="10" font-family="monospace">Bybit API · 熔断器 · 风控</text>

  <rect x="480" y="250" width="200" height="100" rx="8" fill="rgba(0,150,255,0.05)" stroke="rgba(0,150,255,0.3)" stroke-width="1.5"/>
  <text x="580" y="278" text-anchor="middle" fill="#3399ff" font-size="18" font-weight="800">PodcastBot</text>
  <text x="580" y="300" text-anchor="middle" fill="rgba(0,150,255,0.5)" font-size="10" font-family="monospace">4 tools · podcast-sop.md</text>
  <text x="580" y="320" text-anchor="middle" fill="rgba(255,255,255,0.3)" font-size="10">案例 19.2: local-mactts</text>
  <text x="580" y="338" text-anchor="middle" fill="rgba(0,150,255,0.4)" font-size="10" font-family="monospace">RTF 0.49 · TTS 8880</text>

  <rect x="480" y="370" width="200" height="100" rx="8" fill="rgba(255,150,0,0.05)" stroke="rgba(255,150,0,0.3)" stroke-width="1.5"/>
  <text x="580" y="398" text-anchor="middle" fill="#ff9900" font-size="18" font-weight="800">DevOpsBot</text>
  <text x="580" y="420" text-anchor="middle" fill="rgba(255,150,0,0.5)" font-size="10" font-family="monospace">3 tools · devops-sop.md</text>
  <text x="580" y="440" text-anchor="middle" fill="rgba(255,255,255,0.3)" font-size="10">AWS CloudWatch 监控</text>
  <text x="580" y="458" text-anchor="middle" fill="rgba(255,150,0,0.4)" font-size="10" font-family="monospace">自动恢复 · 告警路由</text>

  <!-- Arrow to Supervisor -->
  <line x1="682" y1="170" x2="728" y2="260" stroke="#9966ff" stroke-width="1.5" marker-end="url(#arr)" stroke-dasharray="5,3" opacity="0.5"/>
  <line x1="682" y1="300" x2="728" y2="290" stroke="#9966ff" stroke-width="1.5" marker-end="url(#arr)" stroke-dasharray="5,3" opacity="0.5"/>
  <line x1="682" y1="400" x2="728" y2="320" stroke="#9966ff" stroke-width="1.5" marker-end="url(#arr)" stroke-dasharray="5,3" opacity="0.5"/>

  <!-- Step 4: SupervisorAgent -->
  <rect x="730" y="200" width="140" height="160" rx="8" fill="rgba(153,102,255,0.07)" stroke="rgba(153,102,255,0.35)" stroke-width="1.5"/>
  <text x="800" y="226" text-anchor="middle" fill="#cc88ff" font-size="9" letter-spacing="2">SUPERVISOR</text>
  <text x="800" y="252" text-anchor="middle" fill="white" font-size="15" font-weight="700">统一入口</text>
  <line x1="744" y1="262" x2="856" y2="262" stroke="rgba(153,102,255,0.15)" stroke-width="1"/>
  <text x="800" y="284" text-anchor="middle" fill="rgba(153,102,255,0.6)" font-size="10">意图分类</text>
  <text x="800" y="302" text-anchor="middle" fill="rgba(153,102,255,0.6)" font-size="10">路由决策</text>
  <text x="800" y="320" text-anchor="middle" fill="rgba(153,102,255,0.6)" font-size="10">结果汇总</text>
  <text x="800" y="346" text-anchor="middle" fill="rgba(255,255,255,0.3)" font-size="9">agent-as-tools</text>

  <!-- User -->
  <rect x="730" y="400" width="140" height="60" rx="8" fill="rgba(255,255,255,0.03)" stroke="rgba(255,255,255,0.1)" stroke-width="1"/>
  <text x="800" y="428" text-anchor="middle" fill="rgba(255,255,255,0.5)" font-size="14" font-weight="600">用户</text>
  <text x="800" y="448" text-anchor="middle" fill="rgba(255,255,255,0.3)" font-size="10">一个入口</text>

  <line x1="800" y1="398" x2="800" y2="362" stroke="#9966ff" stroke-width="1.5" stroke-dasharray="5,3" opacity="0.5" marker-end="url(#arr)"/>

  <!-- Bottom label -->
  <text x="450" y="536" text-anchor="middle" fill="rgba(255,255,255,0.15)" font-size="10">Ch 19 Specialization Pattern · Lena-SpecKit v1.9 架构图</text>
</svg>
